<svg height='300px' width='300px'  fill="#000000" xmlns="http://www.w3.org/2000/svg" xmlns:xlink="http://www.w3.org/1999/xlink" xml:space="preserve" version="1.1" style="shape-rendering:geometricPrecision;text-rendering:geometricPrecision;image-rendering:optimizeQuality;" viewBox="0 0 279 107" x="0px" y="0px" fill-rule="evenodd" clip-rule="evenodd"><defs><style type="text/css">
   
    .fil0 {fill:#000000}
   
  </style></defs><g><path class="fil0" d="M184 5c23,7 43,11 66,-5 -12,11 -30,19 -59,15 28,15 64,17 87,-2 -18,18 -42,20 -77,15 19,5 58,6 78,-1 -20,10 -68,9 -84,3 12,6 48,9 69,6 -23,6 -40,3 -45,3 7,3 29,7 55,1 -26,9 -49,8 -80,-2 10,6 45,12 64,11 -19,3 -39,-1 -45,-1 14,6 30,8 45,8 -28,3 -50,-4 -78,-14 22,13 32,14 55,20 -12,0 -26,-2 -41,-8 8,5 24,12 34,14 -22,-3 -43,-9 -63,-23 22,20 40,21 73,29 -39,-3 -54,-6 -82,-26 12,10 28,22 59,30 -25,-4 -50,-16 -63,-26 16,14 25,19 46,27 -22,-7 -33,-10 -52,-26 13,13 19,18 41,27 -17,-5 -23,-9 -36,-18 9,8 19,16 39,23 -19,-4 -36,-14 -50,-26 8,9 14,14 24,21 -16,-8 -19,-12 -29,-22 11,15 14,20 33,31 -20,-9 -20,-10 -36,-24 10,11 17,19 32,25 -12,-4 -26,-13 -32,-22 11,18 18,24 36,39 -21,-13 -38,-27 -50,-45 0,0 13,22 25,32 13,9 13,11 13,11 0,0 -14,-10 -21,-17 -7,-6 -10,-10 -10,-10 3,6 8,12 13,17 -9,-6 -16,-14 -22,-22 5,7 9,15 14,22 -11,-14 -13,-17 -16,-21 4,8 6,17 8,23 -5,-9 -10,-19 -15,-27 5,10 6,24 5,33 -2,-11 -6,-23 -10,-32 2,6 2,25 0,34 -2,-13 1,-22 -6,-35 2,13 -1,21 -7,33 4,-11 4,-22 2,-34 0,9 -1,23 -8,31 4,-13 3,-20 0,-33 1,14 1,20 -9,32 5,-8 5,-14 4,-23 -2,9 -5,17 -11,23 7,-10 6,-20 4,-26 1,8 1,13 -7,19 5,-7 4,-10 4,-15 -2,5 -8,11 -12,15 6,-11 8,-11 8,-24 -2,10 -4,14 -12,20 6,-7 7,-14 7,-23 -4,11 -9,15 -19,22 8,-8 10,-13 11,-24 -3,8 -9,17 -18,20 7,-5 12,-13 13,-22 -2,7 -11,13 -18,17 -1,0 13,-10 13,-14 -2,5 -16,11 -20,12 7,-4 17,-11 18,-17 -3,5 -7,9 -11,10 1,-2 6,-6 6,-9 -2,3 -12,11 -22,12 10,-3 18,-11 19,-15 -2,4 -13,10 -24,11 11,-4 19,-11 21,-15 -3,3 -17,11 -28,11 10,-2 28,-13 22,-19 64,3 134,18 162,-40z"></path></g></svg>