<svg xmlns="http://www.w3.org/2000/svg" xmlns:xlink="http://www.w3.org/1999/xlink" width="1200" height="1200" viewBox="0 0 1200 1200"><g transform="translate(600 600) scale(-0.69 0.69) rotate(0) translate(-600 -600)" style="fill:#000000"><svg fill="#000000" xmlns="http://www.w3.org/2000/svg" data-name="Слой 1" viewBox="0 0 94.97 66" x="0px" y="0px"><title>Глаз-2</title><path d="M46.52,26.28c1-.24-.19-1.18.57-1.61a8.83,8.83,0,0,1,1.39,2.69,2.56,2.56,0,0,0,2.11,1.55c.29,0,.65,0,.58-.41s0-.95-.65-.56c-.39.22-.57,0-.56-.32,0-1.39-.81-2.5-1.22-3.74a10.15,10.15,0,0,0-2.11-3.46,1.76,1.76,0,0,1,1.37,1c.28.39.58.77,1.13.55s.35-.68.34-1.05-.23-.8.32-1.17a4.46,4.46,0,0,1,.62,2.43,3.25,3.25,0,0,0,.77,2A27.24,27.24,0,0,0,53.69,27c.34.37.7.55-.18.61-.59,0-.54.66-.43,1.09s.5.42.86.36a4.09,4.09,0,0,1,1.17-.17c1.45.19,1.28.18,1.13-1.35a23.13,23.13,0,0,1-.38-4.73c.67.15.48.59.47.85-.14,1.78,1.08,3.25,1.08,5a.58.58,0,0,0,.7.58.61.61,0,0,0,.51-.9c-.22-.65-.19-1.39-.71-1.92a1,1,0,0,1-.33-.94c.35-1.55.15-3.15.45-4.73.84.93-.17,2.13.43,3.12,1-.36.9-1.38,1.41-2.31a11.64,11.64,0,0,1-.2,2.77c0,.75-1.18-.19-1,.74.11.53.81.44,1,.92a1.24,1.24,0,0,1-.05.85,3.4,3.4,0,0,0,0,1.87c0,.31,0,.77.41.87s.39-.4.52-.67c.32-.64,1.08-.16,1.53-.68-.11,1.31,1.14,1.92,1.25,3a.4.4,0,0,0,.56.26.44.44,0,0,0,.23-.57c-.2-.76-.32-1.48.57-1.89a.92.92,0,0,1,.24,0,17.87,17.87,0,0,0,.4,2.14c.3,1,1,1.23,1.83.7s.91-.55,1.08.43a2.6,2.6,0,0,0,.16.47s.1,0,.24.09a1.47,1.47,0,0,0,.07-1.68c-.48-1.14-.19-1.76,1.21-2.65a14.34,14.34,0,0,0-.07,2.76c.18,1,1.78,2.82,2.36,2.44s.87.12,1.27.1c.72,0,.92.28.7,1s.32,1.26.71.88c1.11-1.1,1.33-.21,1.59.53.67,0,.62-.72,1.08-.85.22,1.17.22,1.17,1.62.84.23.57-.31,1-.37,1.44,0,.34-.63.62-.05,1a1.12,1.12,0,0,0,1.28.2c.29-.18.52-.46.81-.64s.8,0,1.14.16.11.48,0,.75c-.33,1-.2,1.12.83,1.09,1.32-.05,1.94-1.1,3-2A2.5,2.5,0,0,1,85,39.83a1.4,1.4,0,0,0,.69,2.31c1.59.67,3.19,1.31,4.78,2A2.43,2.43,0,0,1,92,45.64a1.89,1.89,0,0,1-.37,2.08,5.17,5.17,0,0,1-2.57,1.68,67.27,67.27,0,0,0-10,3.23,39.89,39.89,0,0,1-6,1.38c-.48.1-1.18-.15-1.32.52a1.37,1.37,0,0,0,.81,1.7.39.39,0,0,1,.24.46c-.11.25-.37.18-.54.08-1.12-.69-2-.15-3.07.32-2.79,1.27-4.58,3.54-6.22,6-.47.7-1.52.94-1.54,2,.25.38.61.23.92.15a73.85,73.85,0,0,0,13.86-4.74c.62-.3,1.24-.6,1.84-.94,1.39-.75,1.49-1.11.4-2.27a7.54,7.54,0,0,0-5-2.32c1.62-.54,2.16-.45,3.76.48a6.17,6.17,0,0,1,2,1.85c.76,1.11.78,1.14,2,.5,2.1-1.08,4.2-2.16,6.24-3.34s4-1.84,5.93-2.8a10.63,10.63,0,0,1,4.18-.74c-1.21.87-2.36.8-3.36,1.21A105.8,105.8,0,0,0,83.56,57.4c-4.53,2.46-9,4.93-14,6.45-3,.91-5.87,2.07-9,2.24a1.57,1.57,0,0,0-1.13.7c-1,1.15-2.75,1.69-3.81.74-2.06-1.84-4.56-1.71-7-2.11a25.59,25.59,0,0,1-6.11-1.82c-2.23-1-4.53-1.81-6.74-2.9-1.28-.63-1.69-.92-2.5.92-.1.24-.12.6-.56.59a1.46,1.46,0,0,1,.09-1.43c.32-.75.39-1.27-.52-1.61s-1-.31-1.68.84l-.46.86a5,5,0,0,0-.73-1.6c-.6-1.35-.57-1.33-1.8-.51a14.21,14.21,0,0,1-2.56,1.73l0,0c-.06-.75.74-1.1.92-1.67-.3-.38-.49-.23-.68-.09s-.32.34-.58.17c0-.1-.06-.24,0-.31.16-.24.38-.43.53-.67.55-.9.45-1.16-.55-1.48s-2.08-.5-2.95.38c-.34-.5.43-.6.14-1-.64-.15-1,.66-1.64.6,0-.56.59-.68.75-1.28-1.56-.56-3-1.2-4.63,0a9.25,9.25,0,0,0-2.79,2.53,3.07,3.07,0,0,1-.7.74.55.55,0,0,1-.78-.1.46.46,0,0,1,.11-.61c.49-.49,1-.94,1.49-1.44.7-.73,1.66-1.21,2-2.27.15-.45.69-.59,1.11-.76,1.32-.54,2.61-1.16,4-1.65a2.5,2.5,0,0,0-2.46.34,20.12,20.12,0,0,1-3.09,1.52,4.35,4.35,0,0,1-1,.3c-.44.08-1,.2-1.2-.34s.43-.6.73-.8A35,35,0,0,1,17.25,51c-2.4,0-4.63,1.14-7.09,1,.11-1,1.29-.65,1.62-1.33-.66-.3-1.22.14-1.82.19-.37,0-.87.27-1-.27s.36-.5.61-.71c.07,0,.08-.16.12-.25-.53-.22-1.33.62-1.53-.11s.8-.83,1.32-1c1.39-.49,2.83-.86,4.24-1.43-1.56-.65-3.27.28-4.72-.56.79-.81,1.84-.71,3-.6a14,14,0,0,0,3.4.29c-1.2-.78-2.45-.78-3.56-1.17-.49-.18-1.22-.05-1-1,0-.06-.24-.22-.39-.28-2.25-1-3.89-2.86-6.06-3.94a3.59,3.59,0,0,1-1.44-1.21.85.85,0,0,1-.06-1.11.76.76,0,0,1,1-.1A7.27,7.27,0,0,1,6.1,38.72c1.87,2,4.36,3,6.65,4.29.83.49,1.75.83,3,1.42-1.19-1.66-2-3.1-3.59-3.9.29-2-2.65-1.78-2.65-3.76.89.29,1.3,1.17,2.42,1.6a3.54,3.54,0,0,1,0-3.65c1,.66.53,1.83,1.19,2.5a4.76,4.76,0,0,0,2.32,1.36c-.05-1.36-1.19-2.3-1.36-3.74,1.35.49,1.6,1.77,2.41,2.49s1.51,1.82,2.62,2.21,2,1.11,3.48,1.17C19.92,38.35,17,36.78,15,34.12c-.13-.17-.1-.44.18-.83A14.15,14.15,0,0,0,19,36.21c-.28-1-1.34-1.18-1.52-2.07.82-.09,1.08.85,1.95.9-.72-1.57-1.14-3.19-2.58-4.28,2.9,1.32,4.59,4.05,7.1,5.85-1.28-2.29-3.28-4-4.95-6a.52.52,0,0,1,.61-.15c1.82.27,1.94.17,1.88-1.77.82,1.11,1.64,1.06,2.7.49a26.94,26.94,0,0,0,2.67-1.09c-.76-.94-.69-2.45-2.25-2.81.1-.57.59-.18.79-.45.5-.69,1.06-.51,1.61,0,.39.34.8.66,1.21,1,1.46,1.12,2.58.82,3.51-.95l0,0a.87.87,0,0,0,1.1-.14c.8-.76,1.84-1.19,2.67-1.89a29,29,0,0,1,6.66-3.91,19.09,19.09,0,0,1,6.15-1.65,41,41,0,0,1,12.37.37,29.08,29.08,0,0,1,11.45,5c2.87,2.11,5.83,4.11,8.76,6.14a24.15,24.15,0,0,1,4.86,4.34A17,17,0,0,0,92.54,38c.38.15.75.29,1.12.46.07,0,.09.19.21.43A13.26,13.26,0,0,1,89,37.18a15.1,15.1,0,0,1-4.8-4.13,11.41,11.41,0,0,0-2.9-2.69c-3.84-2.73-7.68-5.48-11.63-8A26.92,26.92,0,0,0,56,18a59.74,59.74,0,0,0-7.08.07,22,22,0,0,0-8.48,2.65c-.61.31-1.19.68-1.81,1A1,1,0,0,0,38,23.07a1.89,1.89,0,0,1,.06,1.64c-.39,0-.5-.25-.66-.49-.8-1.15-1-1.21-2.16-.43-.75.51-1.85,1-2.07,1.69-.33,1.1,1.26,1,1.76,1.7.65,1,2,.75,2.77,1.58.31.33,1-.39,1.56-.07.06,0,0-.27-.07-.41a.55.55,0,0,1,.1-.77c.39-.26.62.1.85.33l1.67,1.79c.35-.6-.3-.77-.26-1.28.38-.23.59.49,1,.29a.35.35,0,0,0,0-.48,3.24,3.24,0,0,1-.86-2.5,3.16,3.16,0,0,0-.93-2.3c-.81-1.1-.85-1.08.12-2,.11-.11.25-.22.47-.41a11.08,11.08,0,0,1,1.14,2.48c.13.34.2.83.79.71s.55-.46.38-.9c-.1-.28-.1-.62.31-.64s.4.35.43.63a5.77,5.77,0,0,0,1,3.07c.3.39.76.87,1.14,0ZM26.81,30.41c.47.49,1,1,1.42,1.48a3.07,3.07,0,0,0,2,1c-.07-.27-.08-.39-.12-.49-.36-.92-1.66-1.33-1.42-2.61,0-.17-.35-.42-.54-.63-.34-.37-.72-.25-1.11-.1s-.13.56-.12.85a3,3,0,0,1-.1.5,7.8,7.8,0,0,0-.93-.7c-.18-.1-.53,0-.55.21,0,.54.47.7.82.91S26.73,30.75,26.81,30.41ZM65.2,45a2.74,2.74,0,0,0-1.55-.6c-.84-.09,0,.43-.16.61-.34.11-.81-.23-1.09.34,1,.93,2.46,1,3.66,2a3.08,3.08,0,0,1-2.16-.59c-1.18-.69-2.24-.77-3.14.42a2.25,2.25,0,0,0-.19.32,2.16,2.16,0,0,0,.87,1,.33.33,0,0,1,.12.41c-.23.81-.19.81-.12.94a2.44,2.44,0,0,0,.88.81c.27.18.42.41.17.7s-.51.07-.72-.1c-.67-.54-1.19-1.28-2.11-1.44,0-.42-.19-.75-.8-.77a1,1,0,0,0,.83.74l-.45,1.28c-.68-.21-1.05-.84-1.69-1.37-.1.73.62,1.13.36,1.76-.82-.38-.87-1.42-1.78-1.77a3.5,3.5,0,0,0,1,2.32c.7,1.06,1.62,1,2.48-.17,1.7,1,3.47.17,5.21.21.18,0,.39-.22.55-.38a11.74,11.74,0,0,0,3.8-6.94c.08-.71-.08-1.14-.86-1.13a37.44,37.44,0,0,1-5.29-.5c-.12,0-.16.15-.07.36.62.12,1.29.27,2,.38s1.21.36,1.3,1.14l0,0ZM50.82,58.53c-.09.32-.21.64-.27,1a.37.37,0,0,0,.31.49c.28,0,.41-.14.43-.38s.06-.78.09-1.18l2.36-.29c0,.74.17,1.33-.94,1.53s-1.36,1.08-.55,2.06a23.43,23.43,0,0,1,2,2.8A3,3,0,0,0,56.49,66a4.45,4.45,0,0,0,5.16-3.45c.08-.39,0-.84.42-1.06a5.14,5.14,0,0,0,2-2.53,4,4,0,0,1,2.12-2.14c1.18-.52,2.2-1.45,3.43-2,.24-.1.52-.27.4-.65H62.35a2.07,2.07,0,0,0-.33.1,34.49,34.49,0,0,1-11.33.49c-2.62-.37-5.24-.7-7.86-1a4.82,4.82,0,0,0-1.2,0,1,1,0,0,0-.85.75.75.75,0,0,0,.59.92,7.15,7.15,0,0,1,2.19,1.26,1.31,1.31,0,0,0,1.84-.07c-.37-.36-1-.06-1.21-.83a6.66,6.66,0,0,0,2.32.16,19.12,19.12,0,0,1,2.39.35,3.44,3.44,0,0,1,2.19.62c-1.91.52-3.71-1-5.22.55a1.9,1.9,0,0,0,2.3.23c.6-.26,1.25-.59,1.88-.13,0,.16,0,.22,0,.27-.09.49-1.22.51-.73,1.1S50.35,58.82,50.82,58.53ZM47.55,35.62l.82.28c1.17.42,1.2.4,1.5-.95,0-.16.06-.33.37-.38a5.4,5.4,0,0,1,.25,2c.2,1.68.23,1.85,1.84,1.76A7.13,7.13,0,0,1,57,39.73a5.8,5.8,0,0,0,3.23,1,5.45,5.45,0,0,0,2.89-1c.74-.41,1-.11,1.32.57L63,40.81c-.45.14-.43.45-.38.82s.07.73.52.78c1.65.19,3.28.7,5,.48,1-.14,1.11-.3.9-1.35s-.23-2.32-1.36-3c0-1.72-.82-1-1.57-.53a.41.41,0,0,1-.49,0c-.08-.48.38-.64.61-.92s.24-.73-.17-1c-2.07-1.37-4-3.06-6.63-3.32-.8-.08-1.58-.27-2.38-.38a44.08,44.08,0,0,0-5.86-.16c-.66,0-.88.73-1.46.62a4.79,4.79,0,0,0-4.56,1.76c-.9,1-1.88,2-2.77,3-2.54,2.88-2.31,6.36-1.61,9.81a2.15,2.15,0,0,0,2.36,1.74l0,0c-.26.57-1.22,1.11-.4,1.76C43.89,51.81,45,53,46.84,53a4.76,4.76,0,0,1,1.51.33,8.42,8.42,0,0,0,2.74.18c.86,0,1.76-.24,2.56-.15s1.32-1,2.22-.66c.15.07.27-.21.21-.37a13.13,13.13,0,0,0-.86-2.24c-.26-.46-.95-.21-1.46-.45-1.12-.53-1.66,0-1.69,1.19,0,.23,0,.46,0,.69s0,.61-.35.65-.45-.24-.45-.56c0-.57,0-1.15,0-1.72,0-.15-.09-.2-.21-.16-.35.3.22.81-.3,1.12-.39-.32-.74-1.13-1.38-.27a.33.33,0,0,1-.58,0,.63.63,0,0,1,0-.47c.15-.59.73-1,.69-2a25.66,25.66,0,0,1-5,3.31c.78-1.69.77-1.77,1.56-1.87,1.34-.18,1.81-1.15,2.29-2-.53-.7-1.28-.22-2.14-.78l1.26-.61.56-.55c-2.54.78-1.28-.33-1.3-.76-1.15-.42-2.24.41-3.78.13,1.45-.67,2.78-.61,3.76-1.32-.25-1.37-1.61-1.16-2.37-1.8.68-.64,1.53-.09,2.14-.51,0-.15,0-.29-.12-.34-.34-.26-.35-.29,0-.41a.8.8,0,0,0,.5-.39c.79-1.42,1.77-2.8.75-4.53Zm20.28-.14c3.43,5.78,3,11.33-1.51,16.59a25.12,25.12,0,0,0,8.8.64,31.5,31.5,0,0,0,7.22-2.26,2.51,2.51,0,0,0,.92-.73c1.19-1.29,1.25-2.89,1.41-4.5s.22-1.59-1.2-2.38C78.74,40.23,73.82,38,69,35.66A1.08,1.08,0,0,0,67.83,35.48Zm-26.15-.16a23.75,23.75,0,0,0-4.78,2.56c-2.88,1.9-5.59,4.06-8.78,5.43-1.21.52-2.12,1.54-3.4,1.92a.77.77,0,0,0-.4.52c0,.35.29.41.57.49A32.31,32.31,0,0,0,31,48a2.37,2.37,0,0,1,1.56.65c1.45,1.63,3.35,2.78,4.74,4.48.8,1,1.22,1.06,2.11.27a2.55,2.55,0,0,1,2.05-.61A2.09,2.09,0,0,0,43,52.58a9.78,9.78,0,0,1-2.54-2.8,13.85,13.85,0,0,1-1.09-8.24A16.86,16.86,0,0,1,41.68,35.32ZM38.91,61c.52.78,1.43.48,2,.9a18.9,18.9,0,0,0,7,2.67,15.45,15.45,0,0,0,4.62.59,3.53,3.53,0,0,0-2-2.35,5.52,5.52,0,0,1-2-1.71,3.08,3.08,0,0,0-3.4-1.12c.23-.92.1-1.19-.73-1.11a10.6,10.6,0,0,0-3.66.47,10.45,10.45,0,0,1,1.39-1,.53.53,0,0,0,.23-.41c0-.24-.28-.33-.52-.36-.4-.07-.6.25-.9.41C39.79,58.62,39.55,59.92,38.91,61Zm-3.46-8a9.87,9.87,0,0,0-2.2-2.27,4.68,4.68,0,0,0-3.5-1.55,4.31,4.31,0,0,1-1.65-.44c-1.41-.47-2.82-1-4.24-1.41-.49-.15-1.09-.29-1.36.31s.06,1.21.71,1.53c.41.2.81.41,1.24.57,3.34,1.21,6.82,2,10.1,3.37A.76.76,0,0,0,35.45,52.93Zm50.64-6.48c0,1.28.65,1.69,1.92,1.27a4.81,4.81,0,0,0,1.84-.91c.32-.28,1.05-.06,1-.74s-.54-.84-1-1.06l-.94-.42C87,43.79,86,44.41,86.09,46.45ZM34.83,29.78c.21-1.8-1-2.45-2.17-3.16-.37-.23-.76-.33-1.09,0s-.18.86.16,1.2A8.2,8.2,0,0,0,34.83,29.78Zm-11.39,1A22.43,22.43,0,0,0,29.59,35c-.87-2.14-3.55-2.13-4.68-4C24.72,30.66,24.34,30.41,23.44,30.74Zm8.69,27.37c1.5,1,2.08.84,2.26-.68a2.89,2.89,0,0,1,1-1.83c.21-.23.65-.27.59-.73C34.92,55.18,33.74,56.16,32.13,58.11Zm6.74.17c0-.49-.27-.73-.77-.54-.73.27-1.14.93-1.69,1.43s-.23.79.28,1C37.74,60.62,38.77,59.74,38.87,58.28ZM27.15,53.8a2.35,2.35,0,0,0-1.35,1.14c-.22.31-.61.64-.13,1a.91.91,0,0,0,1.25.07l3.32-2.91c-.58-.31-1-.44-1.32.08a12.42,12.42,0,0,1-1.32,1.58c-.32.32-.57.87-1.21.69C26.22,54.69,27.08,54.55,27.15,53.8Zm-2.07-20c.72,1.7,3.39,3.72,5.11,3.8C28.31,36.28,26.71,35,25.08,33.76Zm-6.2,9c-1.54-1.14-2.6-2.94-4.62-3.46A11.94,11.94,0,0,0,18.88,42.8Zm4.23,11.93c1.95-.58,3.07-1.43,3.51-2.57C25.05,52.57,24.21,53.84,23.11,54.73Zm11,.37a4.15,4.15,0,0,0-3,2.75ZM24,34.22a13.12,13.12,0,0,1-1.82-2.79c-.08-.24-.38-.22-.58-.06a.37.37,0,0,0,0,.59A7.48,7.48,0,0,0,24,34.22ZM15.9,48.71a12.87,12.87,0,0,0-4.68.92C12.82,49.5,14.33,49,15.9,48.71ZM34.62,33.42l.22-.29L31.72,31l-.22.31A16.09,16.09,0,0,0,34.62,33.42ZM22.22,36.7l.12-.07-2.19-2.16,0,0Zm15.33-5.43c-.31-1.19-.95-1.6-2-2.2A4,4,0,0,0,37.55,31.27ZM46.38,28c0,.74.47,1.11,1.35,1.29A1.53,1.53,0,0,0,46.38,28Zm-13,2.45c.59.6,1.06,1.4,2.18,1.48A3.66,3.66,0,0,0,33.38,30.4ZM30.87,55.1l2-1.26C31.54,53.43,31.23,54.34,30.87,55.1ZM26.19,38.42c.51.34.95.84,1.76.37a2.16,2.16,0,0,0-1.26-.63A.43.43,0,0,0,26.19,38.42Zm-5.31-1a1.17,1.17,0,0,0,1,.76C21.76,37.69,21.47,37.49,20.88,37.4ZM21.77,54c0-.26-.18-.29-.34-.29s-.47.05-.51.3.22.33.43.33A.41.41,0,0,0,21.77,54Zm9.57-18.17c.09,0,.25-.08.26-.13,0-.33-.2-.48-.45-.6,0,0-.24.07-.25.12A.61.61,0,0,0,31.34,35.81Zm14.37-5.89c.09,0,.24-.06.26-.12.09-.25-.09-.4-.27-.51a.2.2,0,0,0-.33.15A.46.46,0,0,0,45.71,29.92ZM20.41,53.08a.56.56,0,0,0,.76-.33C20.8,52.61,20.6,52.81,20.41,53.08Zm19.46,3.07c-.16,0-.25.11-.32.26s0,.24.1.25.42,0,.43-.31C40.09,56.29,40,56.23,39.87,56.15ZM56.08,29.82l-.18.23c.08.06.17.18.24.16s.13-.14.19-.22ZM25.41,37a.33.33,0,0,0-.35-.28c-.15,0-.2.09-.1.21a.7.7,0,0,0,.25.21C25.34,37.17,25.42,37.11,25.41,37Zm5-6a4.28,4.28,0,0,0-.29-.33c-.11-.1-.26,0-.24.07a.84.84,0,0,0,.27.36C30.27,31.17,30.37,31.13,30.43,31Z" transform="translate(-2.6 -17)"></path><path d="M53.65,78.13a4.32,4.32,0,0,1,.46-2.27A18.32,18.32,0,0,0,55.35,72a6.21,6.21,0,0,1,.79-1.71c.73-1.26,2.35-1.56,3.15-.37,1.21,1.77,2.61,3.46,3.27,5.6s-1.5,6.53-4,7.33a3.5,3.5,0,0,1-4.09-1.32A6.05,6.05,0,0,1,53.65,78.13Zm1.86.12a10.31,10.31,0,0,0,.06,1.27,2.73,2.73,0,0,0,4,1.78c1.74-1.17,3-5.22,1.7-7-.89-1.21-1.73-2.45-2.64-3.63-.49-.64-1.09-.57-1.53.09a2.45,2.45,0,0,0-.38.78A64.22,64.22,0,0,0,55.51,78.25Z" transform="translate(-2.6 -17)"></path><path d="M96.8,43.29A25.58,25.58,0,0,1,88,38.48c.79-.14.76-.1,2.9,1.33a26.06,26.06,0,0,0,3,1.63c1,.5,2.06,1,3.1,1.44Z" transform="translate(-2.6 -17)"></path><path d="M46.54,26.26a3.5,3.5,0,0,1-1.28-4c1.47,1.13.66,2.8,1.26,4Z" transform="translate(-2.6 -17)"></path><path d="M10.58,39.1A3.43,3.43,0,0,1,7.51,37Z" transform="translate(-2.6 -17)"></path><path d="M25.08,60.49A2.81,2.81,0,0,1,24.14,62a1.29,1.29,0,0,1,1-1.46Z" transform="translate(-2.6 -17)"></path><path d="M54.34,22.8c-.61-.19-1-.48-.72-.9s.44,0,.55.23A3.1,3.1,0,0,1,54.34,22.8Z" transform="translate(-2.6 -17)"></path><path d="M31.69,24.86a1.5,1.5,0,0,1-1.28-.94c.69.09.92.6,1.26,1Z" transform="translate(-2.6 -17)"></path><path d="M15.09,31.62c.12.21.07.36-.05.33a.84.84,0,0,1-.4-.27.14.14,0,0,1,.1-.25A.35.35,0,0,1,15.09,31.62Z" transform="translate(-2.6 -17)"></path><path d="M61.13,26l-.16.21c-.06-.07-.16-.14-.17-.21s0-.33.21-.27C61.07,25.71,61.09,25.87,61.13,26Z" transform="translate(-2.6 -17)"></path><path d="M64.29,41.83a2.55,2.55,0,0,1,2.19-.13A2.41,2.41,0,0,1,64.29,41.83Z" transform="translate(-2.6 -17)"></path><path d="M47.57,35.6c-.26-.31-.86-.36-.75-1,0,0,.09-.09.14-.08.65.1.49.65.59,1.06Z" transform="translate(-2.6 -17)"></path><path d="M43.08,49.1c.06-.27.11-.54.48-.53,0,0,.11.07.1.1,0,.36-.35.35-.6.41Z" transform="translate(-2.6 -17)"></path><path d="M60.68,56.66a2.68,2.68,0,0,1-2.55.23,5.44,5.44,0,0,1,2.57-.2Z" transform="translate(-2.6 -17)"></path><path d="M60.7,56.69a3.37,3.37,0,0,1,.59-.32.33.33,0,0,1,.41.21.44.44,0,0,1,0,.32c-.17.3-.39.1-.58,0l-.45-.26Z" transform="translate(-2.6 -17)"></path><path d="M57.41,58.48l-.13.26a1.8,1.8,0,0,1-.2-.19.21.21,0,0,1,.07-.14C57.26,58.33,57.35,58.36,57.41,58.48Z" transform="translate(-2.6 -17)"></path><path d="M63.46,44.93h1.75c.13.1.24.23.38.32s.25.22.2.4-.2.23-.38.2A6.46,6.46,0,0,1,63.46,44.93Z" transform="translate(-2.6 -17)"></path><path d="M66.22,45a3.06,3.06,0,0,1,1.92.46c-.87.33-.87.33-1.9-.49Z" transform="translate(-2.6 -17)"></path><path d="M63.46,48.1c.67-.06,1,.12,1.18.62,0,.06-.1.23-.17.23C64,49,63.69,48.65,63.46,48.1Z" transform="translate(-2.6 -17)"></path></svg></g></svg>