<svg height='300px' width='300px'  fill="#000000" xmlns="http://www.w3.org/2000/svg" data-name="Слой 1" viewBox="0 0 89.68 45.41" x="0px" y="0px"><title>Глаз-7</title><path d="M64.81,34.34c-.12.49-.75.62-.8,1.26.5.38,1.22-.18,1.77.42.39.44.81-.07,1.13-.48a2.79,2.79,0,0,1,2.47-1.19c-1,1.51-2.59,2-3.95,3.31l4.32-1.6c-1,1.83-2.84,1.88-3.91,3,2.88-1.53,6.26-1.1,9.36-3-.5,2.32-2.51,2.54-3.64,3.88,2,.5,3.76-.27,5.73-.35C76.54,41,76,42.3,74.64,43.23c1.06.24,1.8-.31,2.59-.33.1.42-.43.41-.43.77.49.56,1.25-.31,1.77.33-.68,1-2.25.21-3,1.59a9.54,9.54,0,0,0,3.61-.43c1.15-.32,2.31-.63,3.46-.92.24-.07.49-.05.56.26A.4.4,0,0,1,83,45L79.35,47a8.72,8.72,0,0,0,2.38,0c.22.94,1,.83,1.64.83a22.74,22.74,0,0,0,2.31-.28A6.67,6.67,0,0,1,88,47.55a2.42,2.42,0,0,1-2.66,1.16,4.38,4.38,0,0,0-3.2.91c1.52.89,3.07.2,4.44.74s2.94.18,4.69.88a43.38,43.38,0,0,1-4.68,1.38,1.29,1.29,0,0,0,1.92.69A7.54,7.54,0,0,1,91.64,53c-1.42,1.19-3.3.62-4.31,2.14.73.13,1.4.3,2.08.36a1.41,1.41,0,0,1,1.27.85l0,0a1.21,1.21,0,0,0-.85.14c.83.78.83.78,3.07,1.11a1.87,1.87,0,0,0-1.3,1.56l2.31.11c.38,0,.73.11.75.6s-.33.59-.67.71a4.3,4.3,0,0,1-2.13.15c-2.25-.33-4.54-.1-6.78-.58-.46-.09-1-.08-.37.59.1.12,0,.31,0,.27-1-.45-1.81.81-2.92,0a9.06,9.06,0,0,0-6.27-1.58c-1,.08-1.87.65-2.82,0-.24.79.36.91.5,1.28l-.17.18c-.9-.56-1.78-1.17-2.71-1.67-.75-.4-1-.2-1.11.8l-.06.07a4.07,4.07,0,0,1-.7-.1.75.75,0,0,0-.77,0c.56.9,1.88,1,2.3,2.19-1.46.31-2.48-.76-3.7-1s-2.51.12-4-.43c.87,1,2.12,1,2.65,2.1-2,0-3.71-1.16-6-1.26,1.84,1.4,3.84,1.46,5.68,2.72a24.65,24.65,0,0,1-6-1.3c-.56-.21-1.51-1.06-1,.63.14.5-.39.53-.73.34a5.28,5.28,0,0,0-2.44-.95c-.07.54.37.66.54.95s.3.55,0,.79a.64.64,0,0,1-.83,0,4.23,4.23,0,0,1-.84-1.38,1.89,1.89,0,0,0-2.87-.39c-.23.23-.08.58,0,.87-.53.18-.37.52-.17.83s.24.49.52.27c.1-.08.07-.33.1-.51.78.36.92,1.61,2.08,1.5.25,0,.52.51.47.89s-.44.57-.8.58c-.78,0-1.55,0-2.33-.07-.23,0-.6-.16-.38-.41.61-.73.09-.9-.43-1.14a4.68,4.68,0,0,1-1.27-1,10.86,10.86,0,0,0-1.37-1.17c-.53-.37-1.2-.92-1.76-.34s.17,1.06.48,1.54c.06.08,0,.22.08.46-.64.06-1.24.24-1.59-.59s-1.08-1.06-1.73-1.4c-.17.15-.31.21-.32.3-.23,1.45-.23,1.46-1.53.8A2.67,2.67,0,0,1,40,64c.21-.09.53-.25.36-.48a2.71,2.71,0,0,0-2-1.19l.7,1c-.28.08-.64,0-.84.22s0,.7.2,1a1.92,1.92,0,0,0,1.26.61,39.39,39.39,0,0,0,7.76,1.41.63.63,0,0,1,.68.4A14.18,14.18,0,0,1,44,66.83a92.92,92.92,0,0,1-11.19-2.55,57.53,57.53,0,0,1-9.55-4.11A24.79,24.79,0,0,0,12.16,56.8c-.5,0-1.07.07-1.41-.48.32-.56.78-.39,1.16-.41a19.67,19.67,0,0,1,9.49,2.34,5.84,5.84,0,0,0,3.21,1c.64,1.7,2.09,1.88,3.49.37a6.36,6.36,0,0,1-3.52-.35c.53-1.24.53-1.27-.49-1.5-1.29-.31-2.31-1.2-3.62-1.54a24.18,24.18,0,0,0-6.36-1,13.33,13.33,0,0,1-4.42-.59,2.31,2.31,0,0,1-.95-4,25.08,25.08,0,0,1,2.61-2.22,6.23,6.23,0,0,0,1.44-1.36A16.19,16.19,0,0,1,16,43.27a1.59,1.59,0,0,0-2.54-.05c-.78.67-1.62,1.25-2.46,1.84a5.87,5.87,0,0,1-1.1.6.51.51,0,0,1-.65-.16c-.15-.22,0-.45.2-.59l.15-.1c4.13-2.7,7.7-6.16,11.71-9a44.41,44.41,0,0,1,3.79-2.44,70.64,70.64,0,0,1,9-4.4,23.25,23.25,0,0,1,7.68-1.55c1.37-.07,2.74-.16,4.1-.31a32.16,32.16,0,0,1,6.79.28c.77.07,1.61.72,2.36-.12.15-.16.34,0,.4.14.34,1,1.26.91,2,.89s1.17.45,2,.81c-1.08.26-1.94.19-2.62.71-.64-1.08-1.5-1.33-2.14-.48A20.45,20.45,0,0,1,52,32.37c-.18.16-.32.39-.14.62a.66.66,0,0,0,.66.14,2.39,2.39,0,0,0,1-.68c.41-.34.79-.75,1.38-.71-.12.53-.55,1.48.58.9.83-.41,1.52.64,2.14,0a7.63,7.63,0,0,1,1.6-1.4c.61-.36,1.16-.84,1.76-1.23s1-.38.84.5c0,.19-.06.36.14.46,1,.5.35,1-.06,1.36-.77.73-1.61,1.38-2.66,2.27,1.26,0,2.25-.39,3.12.38.28.25.8.05,1.17-.2a1.59,1.59,0,0,1,1.32-.41Zm-36.61-.7c-1.22-.72-2.06-.09-2.87.72a3.14,3.14,0,0,0,3.6.42c-.05-.53-.51-.78-.76-1.18.36.2.73.38,1.07.6.56.35,1.08,1.38,1.71.74s-.43-1.2-.7-1.82-.46-1-1.16-.83A1.15,1.15,0,0,0,28.2,33.64ZM48,49c-.54-.13-1.09-.49-1.61,0,.39,1.07,1.49,1.42,2.14,2.71-1.37-.62-1.92-1.81-3-2.08-.38,1,.71,1.38.65,2.16-1,.39-1.17-.36-1.42-1-.14-.35-.26-.75-.73-.52s-.23.53-.05.79c.32.48.31.75-.35.82-.43,0-.69.76-1.25.37a1.3,1.3,0,0,1-.08-.17c-.16-.61.24-1.47-.57-1.77s-1.6-.43-2.15.59c-.2.39-.64.23-.73-.26s.29-1-.38-1c-.51,0-.63.47-.8.86a1.32,1.32,0,0,1-.3.44A.38.38,0,0,1,37,51a.31.31,0,0,1-.18-.43,8.79,8.79,0,0,0,.41-.81c.25-.79-.11-1.25-.85-.93s-.64.24-.76-.55c-.1-.61-.78-1.29-.92-2.07-1,.23-1.2-1-2.37-1l1.36-.55c.22-.11.46-.47.19-.51C33,44,34,43,33.21,42.83c-.41-.11-.29-.42.06-.6s.6-.13.56-.67a6.75,6.75,0,0,1-2.77-1,3.88,3.88,0,0,1,2.45.16c.5.21.81,0,1-.51s-.21-.64-.53-.8c-.69-.36-1.53-.3-2.12-.82.74-1.45,2.08.21,3.23-.69-1-.55-1.66-1.62-2.8-1a18,18,0,0,1-2.69.89,7.35,7.35,0,0,0-2.72,1.11c1.16.83,2.23,1.56,3.64,1.37.19,0,.42.2.63.31A3.35,3.35,0,0,1,27.58,40a1,1,0,0,0-1.15-.28A1.38,1.38,0,0,0,25.89,41c0,.87.39,1.25,1.3,1.38s2.07-.18,3.26.19a4.33,4.33,0,0,1-2.31.3c-1.41.13-1.7.55-1.17,1.86,2,4.72,5.65,7.62,10.05,9.67a16.59,16.59,0,0,0,8.1,1.15,14.19,14.19,0,0,0,9.28-3.82c.72-.68,1.47-1.32,2.28-2.06.12.74-.33,1-.62,1.36A15.67,15.67,0,0,1,45,56.3c-4.93.28-9.48-.74-13.29-4.28-2.78-2.58-5.16-5.39-6.27-9.14a3.37,3.37,0,0,0-.9-1.82c-1.47,1.33-3.35,1.75-4.82,3.1-1,.92-2.34,1.53-3.27,2.67a4.16,4.16,0,0,0,1.12,6.36,37.43,37.43,0,0,0,6.2,3.11c3.3,1.05,6.5,2.47,9.88,3.22a48.49,48.49,0,0,0,22.22,0c3.25-.79,6.52-1.51,9.78-2.26a2.29,2.29,0,0,0,1.26-.65,2.43,2.43,0,0,1,1.57-.79,5.53,5.53,0,0,0,2.13-.92,3.41,3.41,0,0,0,1.21-4.75,5.22,5.22,0,0,0-.87-.89c-.74-.77-1.77-1.31-1.81-2.6,0-.32-.3-.51-.6-.61-1.55-.53-2.5-1.84-3.63-2.9A26.49,26.49,0,0,0,60.11,40c-.67-.39-1.08,0-1.22.76A12.21,12.21,0,0,0,57.74,39c-.39-.43-1.11-.94-1.49-.2s-1.14.82-1.46,1.52a2.54,2.54,0,0,1-2.39,1.32c-.62.06-1.28-.11-1.9.39,1,.1,1.27,1,2.06,1.33a1.7,1.7,0,0,1-.74.18c-1,0-.84.11-1.36,1.23-.25.53-.41.61.15.8a5.11,5.11,0,0,1,.7.17.68.68,0,0,1,.4.89.64.64,0,0,1-.84.46c-.52-.12-1-.27-1.56-.4-.27-.06-.64.14-.56.26.74,1.14-.67,1.33-.82,2.06Zm7.91-11.22c-.26-.58-.76-.67-1.18-.87a21,21,0,0,0-4.59-1.54,18.84,18.84,0,0,0-6.9-.58c-.77.12-1.24.31-1.25,1.17a1.54,1.54,0,0,1-.26.67,1,1,0,0,0,.48,1.64,23.74,23.74,0,0,1,4.39,3.14c.37.33.71.6,1.27.36a21.88,21.88,0,0,1,5-1.23c.42-.07,1-.09,1.12-.46C54.34,39,55.38,38.62,55.86,37.76Zm-16.06-8c-.24-.1-.39-.11-.43-.18-.19-.41-.24-1.07-.93-.6-.5.35-.23.82.09,1.07a1.81,1.81,0,0,1,.63,1.39,1.27,1.27,0,0,0,2.19.87c.44-.34,1-.26,1.39-.75a.6.6,0,0,1,1.06,0c.54.78,1.14.6,1.65.09a3.8,3.8,0,0,1,2.46-.9c1-.08,1.75-.16,2.25-1.1a.54.54,0,0,1,.76-.27c1.37.93,1.82-.44,2.62-1A23.1,23.1,0,0,1,50,27.92a1.8,1.8,0,0,0-1.86.36.51.51,0,0,1-.89-.09c-.3-.42-.73-.34-1.14-.32-1.25.06-2.5,0-3.75.17S40.05,28.23,39.8,29.71Zm-27.31,24c1.95,0,2.5-.86,1.87-2.56-.2-.56-.36-1.15-.55-1.72s-.54-.9-1.07-.63a7.87,7.87,0,0,0-3.4,2.83c-.49.81-.19,1.67.57,1.67A20.92,20.92,0,0,1,12.49,53.7ZM24,38.1c.29-.88-.74-1.14-.38-1.89,1.05.06,2,1.16,3.33.21-1.18-.65-2.23-1.47-3.49-1-2,.82-3.32,2.64-5.41,3.87a5.35,5.35,0,0,0,3.13.36.44.44,0,0,0,.36-.67c-.12-.26-.4-.48-.12-.93ZM38.09,33c-.58-.89-.24-1.88-.3-2.82s-.44-1.28-1.4-1-1.75.77-2.63,1.11c-1.07.41-1.11.47-.46,1.46.28.43.48,1,1.16,1,.48-.49-.27-1,.12-1.57.52.17,1.24-.05,1.4.78a6,6,0,0,1,.08.73c0,.45.13.91.69.85s.47-.6.35-1A4.53,4.53,0,0,1,37,30.13,5.75,5.75,0,0,0,38.09,33ZM28,61.13a17.37,17.37,0,0,0,5,2.28.85.85,0,0,0,1.12-.94c0-.75-.7-.23-1-.51s-.4-.88-.93-1.05a2,2,0,0,0-1.57.18c-.93.5,0-.81-.6-.62S28.66,60.91,28,61.13ZM68,41.88c2.21.65,5.32.12,6.39-1.06A25.25,25.25,0,0,0,68,41.88ZM34.3,36.55c1.58.82,1.58.82,2.84-.85C36.13,36,35.17,35.75,34.3,36.55ZM19.24,40.91a2.16,2.16,0,0,0-1.9-.57.49.49,0,0,0-.53.4c0,.39.3.46.59.45C18,41.15,18.57,41.38,19.24,40.91Zm49.61-1.42c1.8-.15,2-.27,2.65-1.47A7.32,7.32,0,0,0,68.85,39.49Zm14,12a3.11,3.11,0,0,0,2.1.07A2.39,2.39,0,0,0,82.82,51.51Zm6.68,8.32a3.76,3.76,0,0,0-2-.07A4.18,4.18,0,0,0,89.5,59.83Zm-72-17.67c-.13-.45-.4-.4-.61-.43a1.3,1.3,0,0,0-.52,0c-.16,0-.46-.11-.46.31C16.39,42.11,16.86,42.42,17.48,42.16ZM36.31,64.3c.1,0,.37-.07.38-.16.06-.29-.18-.4-.43-.44s-.51-.05-.53.25S36,64.25,36.31,64.3Zm.3-2.22c-.21,0-.37.08-.34.29a.6.6,0,0,0,.46.48c.21.07.34,0,.32-.26A.67.67,0,0,0,36.61,62.08Zm49.65-6.43c0-.14,0-.24-.14-.27a.65.65,0,0,0-.66.08.4.4,0,0,0,.15.26A.56.56,0,0,0,86.26,55.65Zm2.67,2.65c-.49.07-1-.36-1.65.17C88,58.33,88.44,58.67,88.93,58.3ZM60.7,36.84c0-.27-.11-.35-.29-.34s-.48,0-.55.28c0,.07.19.27.32.32A.41.41,0,0,0,60.7,36.84ZM32,33.57a1.08,1.08,0,0,0,0,.3.85.85,0,0,0,.6.59c.07,0,.24-.11.23-.15,0-.32-.31-.47-.53-.66A1.43,1.43,0,0,0,32,33.57Zm15.7-1.48c.38-.08.71.1,1-.23,0-.05,0-.27-.08-.28A.68.68,0,0,0,47.66,32.09ZM66.1,60a1.55,1.55,0,0,0-.31.09c0,.4.39.32.63.4,0,0,.23-.13.22-.17C66.58,60,66.32,60,66.1,60Zm-34-28.16a.3.3,0,0,0,.16-.42c-.06-.16-.14-.35-.33-.3s-.22.23-.15.41S31.87,31.82,32.08,31.81ZM85.71,59.45c-.11,0-.22-.1-.31-.08s-.37-.15-.45.13A1.06,1.06,0,0,0,85.71,59.45ZM70.89,43c.27-.07.64.31.84-.15A.78.78,0,0,0,70.89,43ZM33.68,33.3c-.2,0-.24.13-.12.25a1.3,1.3,0,0,0,.39.31c.13.07.25,0,.18-.11A3.19,3.19,0,0,0,33.68,33.3Zm22.17.5a.28.28,0,0,0-.3.29s.16.13.24.12A.33.33,0,0,0,56,34S55.9,33.87,55.85,33.8Z" transform="translate(-5 -26)"></path><path d="M66.12,66.47a41.65,41.65,0,0,1-8.7,3.71,37.71,37.71,0,0,1-9.75,1.22,39.05,39.05,0,0,1-8.47-1.34,50.51,50.51,0,0,1-12.55-4.79,43.74,43.74,0,0,0-9.36-3.6c-.37-.11-.82-.1-1.1-.58.49-.51,1-.33,1.51-.2a32.81,32.81,0,0,1,8.25,3,55.69,55.69,0,0,0,17,6.16,31.24,31.24,0,0,0,14.9-.84,62.9,62.9,0,0,0,6.52-2.55A2.07,2.07,0,0,1,66.12,66.47Z" transform="translate(-5 -26)"></path><path d="M10.94,33.8c.74,1.38.13,2.6-.49,3.62-1.69,2.79-3.21,5.68-4.89,8.47-.09.16-.23.27-.56.18C6.57,41.78,9.8,38.33,10.94,33.8Z" transform="translate(-5 -26)"></path><path d="M76.09,60.71c2.57-.79,4.27.89,6.18,1.94C80,62.78,78.2,61.17,76.09,60.71Z" transform="translate(-5 -26)"></path><path d="M94,55a5.83,5.83,0,0,1-2.74.58C92.22,54.53,92.72,54.41,94,55Z" transform="translate(-5 -26)"></path><path d="M14.25,38A6.23,6.23,0,0,1,12,40.66,6,6,0,0,1,14.25,38Z" transform="translate(-5 -26)"></path><path d="M64.84,34.37c1.06-1.45,1.06-1.45,2.53-.91l-2.56.88Z" transform="translate(-5 -26)"></path><path d="M73.18,60.61a3.86,3.86,0,0,1,1.65,1.21,2.23,2.23,0,0,1-1.82-1Z" transform="translate(-5 -26)"></path><path d="M69.19,59.92a1.74,1.74,0,0,1,1.37.91A1.88,1.88,0,0,1,69.13,60Z" transform="translate(-5 -26)"></path><path d="M68.52,31.1a.84.84,0,0,1-.64.68.25.25,0,0,1-.36-.23c0-.4.32-.59.65-.72C68.33,30.76,68.49,30.83,68.52,31.1Z" transform="translate(-5 -26)"></path><path d="M38.43,26a.27.27,0,0,1,.15.41c-.1.23-.26.41-.53.34-.06,0-.11-.22-.09-.32A.46.46,0,0,1,38.43,26Z" transform="translate(-5 -26)"></path><path d="M90.68,56.33a4.12,4.12,0,0,1,.7,0c.25,0,.5.22.42.46s-.45.31-.69.1a2.78,2.78,0,0,1-.41-.57Z" transform="translate(-5 -26)"></path><path d="M64.65,32.05a.52.52,0,0,1-.58.48.27.27,0,0,1-.25-.36.5.5,0,0,1,.49-.4A.27.27,0,0,1,64.65,32.05Z" transform="translate(-5 -26)"></path><path d="M47.93,49c.41-.06.88-.17,1.13.26.45.78,1.2,1.3,2,2.31C49.12,51.37,48.64,50,48,49Z" transform="translate(-5 -26)"></path><path d="M59,44.35a2.26,2.26,0,0,1-.38,2.08A3.7,3.7,0,0,1,59,44.35Z" transform="translate(-5 -26)"></path><path d="M29.23,45c-.28,0-.46-.12-.44-.41s.26-.36.5-.37.55,0,.55.25S29.53,44.9,29.23,45Z" transform="translate(-5 -26)"></path><path d="M52.87,47.69c0-.14.06-.24.2-.22a.51.51,0,0,1,.3.15.17.17,0,0,1-.06.29A.39.39,0,0,1,52.87,47.69Z" transform="translate(-5 -26)"></path><path d="M41.77,29.37c.1,1.19-.88,1.59-1.34,2.29-.11.16-.34.08-.45-.07-.23-.31-.28-.95,0-.93C40.88,30.71,40.77,29.48,41.77,29.37Z" transform="translate(-5 -26)"></path></svg>