<svg xmlns="http://www.w3.org/2000/svg" xmlns:xlink="http://www.w3.org/1999/xlink" width="1200" height="1200" viewBox="0 0 1200 1200"><g transform="translate(600 600) scale(-0.69 0.69) rotate(0) translate(-600 -600)" style="fill:#000000"><svg fill="#000000" xmlns="http://www.w3.org/2000/svg" data-name="Слой 1" viewBox="0 0 95.41 56.13" x="0px" y="0px"><title>Глаз-1</title><path d="M28.38,70.11c-.46.17-.85.26-.65-.49.1-.36.48-.88-.14-1s-.59.48-.78.83a15.16,15.16,0,0,0-1.11,3.2c-.09.35-.22.78-.66.7s-.46-.51-.44-.87.12-.82.15-1.24.14-.7-.17-.81c-1.08-.36-.53-.74-.08-1.18s1-.72,1.17-1.31-.74-.7-.86-1.23a2.42,2.42,0,0,1,0-.54c1.75.48,1.75.48,2.88-1.59-1.19.33-2.34.36-2.87,1.62l-1.15.35c-.28-.29.23-.56,0-.84a1.83,1.83,0,0,0-1.35,1.65c-.07.53-.11,1.07-.16,1.61s.12.94-.38,1.07-.81-.35-1.28-.45-.18-.62,0-.94a9.73,9.73,0,0,1,.88-2.32,1,1,0,0,0,.23-1c-.31-.57-.14-.8.38-1.11a2.16,2.16,0,0,0,.82-1.78c-2,.24-3.3,1.65-4.74,2.77l-.22-.29,1.39-2,0,0a2.87,2.87,0,0,0,1.53-1.07l-1.16.33,0,0c.14-1,1.29-1,1.73-1.88-2.52-.46-4.17,1.56-6.48,2.24.44-1.7,2.13-1.63,2.8-2.7-.75-1.76-.91-1.86-2.73-1.36-.52.14-1,.34-1.52.48s-.72.65-1.39.4a5.35,5.35,0,0,1,2.17-1.72c.42-.28.65-.57-.09-.83-.48-.18-.15-.46.1-.61a3.39,3.39,0,0,0,.77-.47c-1.57.06-3.08-.33-4.62-.39l0,0c.43-.73,1.35-.68,2.12-1.38A28.24,28.24,0,0,0,9.29,52.7c-2-.6-3.69-1.87-5.54-2.78A4.57,4.57,0,0,1,2,47.34a.62.62,0,0,1,.15-.47.53.53,0,0,1,.65-.08c.35.14.51.47.72.76a6.76,6.76,0,0,0,4.35,2.84c1.55.32,3.08.79,4.68,1.06-.68-.78-1.8-.81-2.58-1.46s-1.59-.69-1.77-1.91c-.09-.65-1.11-1.17-1.72-1.73A19.34,19.34,0,0,1,2.8,41.79a1.5,1.5,0,0,1,0-1.88c3.07,4.52,6.43,8.59,11.4,10.88a.86.86,0,0,0,1.06-.27c-1.16-1.22-2.35-2.42-3.48-3.68s-2.85-1.56-4.17-2.68c.68-.36,1,.3,1.44.2.12-.21,0-.33-.16-.42a9.78,9.78,0,0,1-2.68-2.32c-.25-.36-.73-.8-.27-1.24s.66.46,1.16.25c.17-.54-.37-.91-.48-1.4-.06-.29-.21-.62.15-.78a.61.61,0,0,1,.76.31c.65,1.14,1.27,2.29,1.91,3.43a9,9,0,0,0,3.71,3.48,8.88,8.88,0,0,0-1.34-2.33c-1.26-2.08-2.47-4.2-3.7-6.31-.14-.24-.42-.5-.09-.77s.55,0,.78.16a6,6,0,0,1,.78.73c2.32,2.86,5.41,4.78,8.3,6.93a8,8,0,0,0,1.08.54,4.15,4.15,0,0,0-1.6-1.85,27.46,27.46,0,0,1-6.22-7.31,7.15,7.15,0,0,1-.92-2.12c-.08-.42-.43-1,.21-1.22s.67.42.8.77a16,16,0,0,0,2.26,3.82s0,.12.08.16c1.5,1.83,3.2,3.48,4.63,5.38-.29-1.33-1.13-2.4-1.76-4,2.27,1.57,2.69,4.51,5.48,4.94C21.19,42.1,20.51,41,19.81,40a24.36,24.36,0,0,1-2.56-5.1,2.75,2.75,0,0,1-.31-1.2c.31-1.62-.52-2.87-1.2-4.19-.41-.8-.76-1.62-1.12-2.44-.15-.34-.24-.76.14-.94s.6.25.81.52a5.38,5.38,0,0,1,.79,1.59,10.87,10.87,0,0,0,2.71,4.55,9.15,9.15,0,0,1,1.33,2.1A13.27,13.27,0,0,0,23,37.67a1.82,1.82,0,0,0-.21-1.51,18.08,18.08,0,0,1-1.58-5.67,13.58,13.58,0,0,0-.49-1.9c-.11-.38-.09-.73.32-.89s.69.19.72.54c.27,2.47,1.69,4.37,2.89,6.42.56,1,.75,2.21,1.46,3.17.35.48.73.94,1.09,1.41.23.3.47.61.86.29a.6.6,0,0,0,0-1c-1-.85-.81-2-.91-3.27.56.36.51.88.7,1.25a8.31,8.31,0,0,0,.52,1.13c.32.48.7,1.12,1.4.74s.41-1.12.14-1.59c-1.05-1.82-1.41-3.94-2.5-5.73-.15-.24-.29-.5-.48-.83-.8.73-.09,1.65-.63,2.74-.12-1.58-1.1-2.66-.05-4,.31-.39.05-1.27,0-1.92-.1-1.16-.24-2.32-.36-3.47.78-.14,1,.29,1,.69.16,3,1.8,5.31,3.51,7.58a.6.6,0,0,1,.08.16c-1,0-1.14-1.19-2.09-1.67a12.63,12.63,0,0,1,.67,1.69c.33,1.58,1.43,2.7,2.23,4,.2.31.47.59.86.45s.44-.67.36-1.06a4.57,4.57,0,0,0-1.09-2c-.37-.44-.94-.75-1-1.43.9,1,2.12,1.5,3,2.51.26.31.65.61,1.09.26s.2-.68,0-1C33.66,32,33.32,30,31.82,28.48a1,1,0,0,1-.3-.82c.13-1.08-.3-2.21.33-3.69,1.26,3.28,1.5,6.58,3.53,9.32.2-1.39-.65-2.48-.3-3.9.77.9.85,2,1.39,2.77.26.39.43.94,1,.85a2.25,2.25,0,0,0,1.57-1.07c.23-.36,0-.68-.24-1A10.21,10.21,0,0,1,37,26.75a2.21,2.21,0,0,1,.88-2.52c-.18,2.29.71,4.11,1.59,5.92.63,1.3.67,1.3,2,.79A2.27,2.27,0,0,1,42,30.8c.8-.17.91-.64.59-1.32a5.74,5.74,0,0,1-.8-3.41c.46,1,.94,2,1.38,3.05a1.11,1.11,0,0,0,1.56.72c.22-.08.46-.12.68-.19,1.64-.49,1.64-.49,1.41-2.26a8,8,0,0,1,.52-3.84c.49,1.74.93,3.08,1.21,4.44a.76.76,0,0,0,.8.72,5.8,5.8,0,0,0,2.26-.4c1.57-.45,1.55-.44,2.16-1.86.17-.4-.05-1,.62-1.27.5.38.34,1,.29,1.44-.18,1.71.35,1.6,1.39,1.68a31.34,31.34,0,0,1,4.72.75,21.07,21.07,0,0,1,3.08.79c.85.33,1.94-.06,2.58.94.13.21.54.06.75-.22s.27-.93.74-1.16a.31.31,0,0,1,.32.35c-.22,1.49-.22,1.46,1,2.13,2.67,1.41,5.47,2.57,8,4.23,1.88,1.22,3.59,2.7,5.56,3.81.91.51,1.72,1.25,2.61,1.85a13.2,13.2,0,0,1,3.29,2.95A11.56,11.56,0,0,0,92.23,48a.87.87,0,0,1,.51.86c-1.47-.7-3-1.12-4-2.5a13.39,13.39,0,0,0-1.2-1.3,1.3,1.3,0,0,0-1.48-.27c-1.39.47-1.53,1-.46,2.08,1.59,1.53,3.18,3,4.83,4.5,1.82,1.61,3.36,3.53,5.42,4.88,2.44,1.6,1.61,4.28-.12,5.53A13.39,13.39,0,0,1,93,63.4c-3.29,1.36-6.53,2.83-9.74,4.33a44.38,44.38,0,0,1-8.85,2.58,99.28,99.28,0,0,1-11.51,2.15,32.91,32.91,0,0,1-5,.25c-1.27,0-2.35.13-3,1.41-.09.18-.38.25-.58.37l-.13-.12c-.19-.54.73-1.17,0-1.61a1.46,1.46,0,0,0-1.79.32c-.38.34-.81.74-1.4.28-.27-.2-.43.09-.54.28a8.38,8.38,0,0,0-.58,1.11c-.67,1.63-.56,1.84,1.19,2.21,1.56.33,3.12.66,4.69.94A23.3,23.3,0,0,0,66.34,77a114.87,114.87,0,0,0,14-5c2-.84,3.63-2.26,5.6-3.09a5.07,5.07,0,0,1,2.5-.65c.21.33.05.51-.18.59-2.37.82-4.34,2.43-6.59,3.48a113.05,113.05,0,0,1-15,5.5,39.69,39.69,0,0,1-6.25,1.31,22.35,22.35,0,0,1-5.83-.4A17.18,17.18,0,0,1,51,77.9c-.8-.28-1.58.59-2,.11a4.08,4.08,0,0,0-2-1,25.69,25.69,0,0,1-5.14-1.86c-.82-.48-.86-.4-2.11.35-.62-.51-.11-1.56-1.07-2.06s-1.34,0-1.91.67c-.36-.9-.15-2.09-1.58-1.84-.29.06-.51-.78-1.07-1-.85-.32-1.56-.5-2.16.41-.21.31-.38.74-.87.75-.18-.44.19-.65.35-1,.53-1,.23-1.6-.88-1.61a8.6,8.6,0,0,0-1.57.27c.15-.27.5-.58.05-.8-.25-.13-.49.17-.59.45A1.66,1.66,0,0,0,28.38,70.11Zm2.68-29.95a4.21,4.21,0,0,1,1.95.28A7.69,7.69,0,0,0,30.84,39c-.5,0-.52.37-.62.7-.73.64.13.88.35,1.21s.68,1,1.44.52Zm46.73,2.3c.38.37.68.88,1.39.7a2.08,2.08,0,0,0-1.41-.68c-2-1.95-4.56-2.88-7.09-3.82-.54-.19-1.15-.66-1.86-.35,2.14.87,4.22,1.83,6.29,2.83C76,41.58,76.7,42.43,77.79,42.46ZM23.05,41a3.19,3.19,0,0,1-1.69-1.5,16.44,16.44,0,0,1-2-3.75c-.13-.35-.2-.81-1-.77a18.9,18.9,0,0,0,4.65,7.67c.41-.7-.14-1.17,0-1.68.27.22.56.43.82.66.56.5,1,.17,1.36-.24s-.05-.75-.34-1c-.71-.62-1.44-1.21-2.19-1.78-.24-.18-.5-.59-.89-.12ZM37.63,34.9c-.3.08-.61.22-.47.59.21.53.29,1.34,1,1.35a1.54,1.54,0,0,1,1.2.53,1.26,1.26,0,0,0,1.76.1c.72-.44-.1-.92,0-1.37.52,0,.78.78,1.45.41-.48-1.17-1.45-1.93-2.06-2.93a.91.91,0,0,0-.89-.42c-1.15,0-1.62.4-2,1.76ZM72.94,59.2c.69.19,1-.23,1.14-.8.23-.8.43-1.61.65-2.41.45-1.59.31-1.77-1.29-1.69a2.07,2.07,0,0,0-.71.07c-1.48.68-3,.29-4.55.3-.23,0-.63.09-.52-.53,2.06.34,4.08-.28,6.15-.18.8,0,1.39-.27,1.4-1.21a15.38,15.38,0,0,0-2.16-8.7C72,42.38,70.67,41.1,68.6,40.89c-.29,0-.66.06-.87-.09-1.52-1-3.25-1-5-1.22-.71-.1-1.66.16-2-.13A3,3,0,0,0,58,39a8.77,8.77,0,0,1-3,0c-.44-.07-.91-.23-1.3.2.61,1.44,1.68,2.64,2.11,4.13.49,1.75,1.44,2.67,3.33,2.4a3,3,0,0,1,1,.19c.68.19,1.06,0,1.4-.7.64-1.19,1.06-1.27,2.25-.62A9.93,9.93,0,0,1,66.63,47a2.06,2.06,0,0,0,2.05,1c.14.41-.19.49-.25.68-.39,1.24-.64,2.56-2.14,3-.29.09-.1.37.16.47s.55.1.14.39c-.63.44-.4,1-.33,1.6A2.89,2.89,0,0,1,66,56.34a1.07,1.07,0,0,0,.32,1.54c-.4,0-.94-.12-1.13.31s.38.64.68.89c.5.4,1.19.56,1.58,1.12a.62.62,0,0,1,.1.49.37.37,0,0,1-.57.19c-.61-.37-1.2-.77-1.78-1.18a1,1,0,0,0-1.57.12,2,2,0,0,1-.46.51c-1.68,1-1.69,1-1.24,2.79-.48.24-.6-.74-1.16-.37l.76,2.84C60.1,64.6,60.11,63,59.23,62c-.79,1.08-.83,1.09-1.55.19-.17-.21-.25-.59-.77-.24.61.75.31,1.64.3,2.5a.56.56,0,0,1-.52.61c-.54,0-.49-.38-.42-.75a3,3,0,0,0-.2-1.4c-.07-.23-.21-.6-.4-.45-1.14.86-.68-.21-.69-.59a.71.71,0,0,0-.84-.71c-1.39.14-2-1.78-3.48-1.31,0,0-.07-.1-.06-.15.28-1.59-1,.09-1.17-.57.11-.4.89-.39.68-.91S49.4,58,49,58.07c-.57.13-1.08.59-2,.35l1.66-.83a2,2,0,0,0,.6-.46c-.84-.13.14-1.09-.68-1.33s-.8-.76-.12-1.25c.2-.14.53-.34.36-.46-.76-.55-.32-1.43-.58-2-.67-1.34.85-.11.67-.69s-1.22-.81-1.63-1.55c.89,0,1.44.78,2.26.61,0-.21,0-.38-.08-.43-1.85-1.49-3.16-3.54-5.1-4.94-.91-.66-.91-.81-.08-1.64a14.58,14.58,0,0,1,2.93-2.3c1.24-.74,2.62-1.22,4-2a2.85,2.85,0,0,0-2.13,0,16.73,16.73,0,0,1-4.21,1.37,4.07,4.07,0,0,0-2.31,1.51,18.32,18.32,0,0,0-4.28,10A15.14,15.14,0,0,0,38.53,55a14.25,14.25,0,0,0,3.52,8.18c1.48,1.8,3.47,2.79,5.44,3.89a19.58,19.58,0,0,0,10.86,2.71c.12,0,.24,0,.36,0a13,13,0,0,0,9.81-3.53,1.26,1.26,0,0,1,.6-.36c.79-.13,1.12-.83,1.64-1.29s.7-1.5,1.27-2.08.42-1-.3-1.46c-1.17-.67-2.54-1-3.37-2.24l3.84,1.68c.32.14.71.37,1,0s-.28-.66-.46-1Zm1.94-15.75c0,.33-.09.39-.07.44a3.81,3.81,0,0,0,.24.67c1.84,3.39,2,7.07,1.73,10.8a8.36,8.36,0,0,1-.61,2.42,28.58,28.58,0,0,1-4.56,8,14.3,14.3,0,0,1-6.9,4.76,8.1,8.1,0,0,0-2.64,1,14.49,14.49,0,0,0,3.29-.17c2.68-.44,5.33-1.08,8-1.7s5.61-1,8.2-2.23c3.22-1.5,6.41-3.05,9.72-4.35a2.35,2.35,0,0,0,1.67-1.92,9.35,9.35,0,0,0-2.23-7.27c-1.71-2-4.12-3.17-6.25-4.67A79.06,79.06,0,0,0,74.88,43.45Zm-35.41-.64-.28-.32-7.37,3.36a1.49,1.49,0,0,0-.14.12,31,31,0,0,1-6,3.39,49.27,49.27,0,0,0-6.86,3.69c-.25.15-.68.35-.56.6.41.85.2,2,1,2.59,1.09.73,2,1.65,3.1,2.39,1.84,1.28,4.18,1.82,5.56,3.81.15.21.54.23.8.38a109,109,0,0,0,10.47,4.84,78.86,78.86,0,0,0,9,3,26.88,26.88,0,0,0,8.89,1.09C50.94,71,44.8,69,40.47,63.16c-3.29-4.45-4.5-9.26-3.09-14.68A22.61,22.61,0,0,1,39.47,42.81ZM52.18,40a3.37,3.37,0,0,0-1.29.35,23.9,23.9,0,0,0-5.46,2.92c-1.08.74-1,.83,0,1.83,2.41,2.55,5.36,4.51,7.6,7.23.5.6,1,.55,1.5.07a6.66,6.66,0,0,1,1.63-1.07c1.51-.7,1.63-1,1-2.62-.75-1.87-1.56-3.73-2.37-5.59-.33-.76-.7-1.51-1.07-2.26A1.38,1.38,0,0,0,52.18,40ZM86,43.74c-.34-.89-1.17-1.28-1.9-1.75s-1.64-1.15-2.46-1.72c-1.67-1.17-3.42-2.2-5-3.47a27.23,27.23,0,0,0-5.62-3c-.27-.12-.51-.3-.82-.14A4.72,4.72,0,0,0,69,36.57c0,.27.23.56.41.5,1-.32,1.37.75,2.12,1a23.66,23.66,0,0,1,5.88,2.84,2.17,2.17,0,0,0,2.18.23,4.15,4.15,0,0,1,.68-.22c.23,0,.54-.34.69.14-.26.49-1,.5-1.14,1.13a13.41,13.41,0,0,0,2,1.6C83.69,45.29,84,45.27,86,43.74Zm-23.23,1c-.49,0-.59.36-.65.72a13.16,13.16,0,0,1-1.07,3.17c-.85,1.92-.81,1.93.75,3.39.25.24.48.53.72.79s.72.42,1,0a1.5,1.5,0,0,1,.79-.66c1.05-.4,1.61-1.37,2.38-2.09a.93.93,0,0,0,.3-1.13,12.52,12.52,0,0,0-4.07-4.12A.5.5,0,0,0,62.77,44.79ZM56.35,33.62c.6-.46.42-1.08.62-1.55.1-.22.19-.45.47-.44s.34.3.33.53c0,.53-.12,1.06-.13,1.59a.94.94,0,0,0,.71,1.08,1,1,0,0,0,1.25-.67c.38-.94.73-1.88,1.13-2.8s.31-1.31-1.06-1.63a1.89,1.89,0,0,0-1,.2c-.57.18-1.09.53-1.5-.37-.22-.49-.95-.41-1.47-.28s-.54.68-.61,1.15A3.22,3.22,0,0,0,56.35,33.62Zm-2.33,1a15.93,15.93,0,0,0-.61-4.95.38.38,0,0,0-.37-.32.41.41,0,0,0-.38.3c-.1.23,0,.61-.41.66a4.66,4.66,0,0,0-.51-.72c-.67-.64-1.34-.09-2,.11-.36.11-.43.59-.25.93.75,1.4,1.55,2.79,2.34,4.18a.49.49,0,0,0,.59.26c.39-.14.28-.48.22-.75a3.33,3.33,0,0,1,0-2C53.39,33,53,34,54,34.66Zm-9.51,1.55a2.18,2.18,0,0,0,1.34-.11c.38-.18.59-.42.32-.82-.78-1.18-1.57-2.36-2.39-3.52a.87.87,0,0,0-1.24-.29c-.52.35-1.27.4-1.56,1.05-.13.29.12.56.28.8.48.68,1,1.34,1.44,2A1.66,1.66,0,0,0,44.51,36.21Zm4.14-.62c.86,0,1.12-.38.61-1.1a4,4,0,0,1-.8-2.4c0-1.43-.9-2-2.06-1.77-.67.15-1.62.05-1.82.8s.75,1.09,1.16,1.65,1.56.95,1.62,1.81S48,35.53,48.65,35.59ZM47.53,76.1c.64.1,1,0,1.22-.43.25-.66.48-1.32.67-2s-.41-1.06-.69-1.51-.73,0-1.09.13a2.47,2.47,0,0,0-1.17,1c-.35.64-1.24,1.17-.79,2S47,75.88,47.53,76.1ZM61.48,32.7a14.16,14.16,0,0,0,.14,1.85,1.18,1.18,0,0,0,1.34.92c.58,0,.45-.6.51-1q.21-1.32.39-2.64c.12-.94-.16-1.29-1-1.13S61.25,31.23,61.48,32.7ZM46,71.76a.8.8,0,0,0-.43-.73.87.87,0,0,0-1.14.12c-.35.39-.67.82-1,1.24s-.36.31-.6-.07c-.41-.63-.69,0-.93.24s-.7.54-.46,1a2,2,0,0,0,2.32.59c.64-.52,1.23-1.11,1.83-1.67A1.06,1.06,0,0,0,46,71.76ZM93.41,56a13.66,13.66,0,0,1,.8,4.65c0,.38.25.5.59.4a2.24,2.24,0,0,0,.93-3.48A7.4,7.4,0,0,0,93.41,56ZM43,70.26c-1.68-.82-3-.32-4.79,1.66,1.43,1.11,1.92,1.29,2.53.58S42.23,71,43,70.26ZM14.52,44.46a13.43,13.43,0,0,0,2.23,2.65,5.22,5.22,0,0,0,2.88,1.23.46.46,0,0,0,.58-.27c.11-.28-.09-.43-.32-.53a26.29,26.29,0,0,1-3.55-2C15.83,45.23,15.6,44.48,14.52,44.46Zm21,24.17a1.66,1.66,0,0,0-1.05.42c-.84.68-.78,1,.24,1.44,1.35.56,2.76-.09,4-1.82-1.47,0-1.47,0-2.49,1.11a.32.32,0,0,1-.45.07C35.4,69.51,35.87,69,35.52,68.63Zm1.53-30a3.24,3.24,0,0,0-.13-.33,4.42,4.42,0,0,0-2.46-1.85c-.37-.16-.67.13-.61.59a2.61,2.61,0,0,0,2.63,2.11C36.78,39.15,37.06,39.07,37.05,38.67Zm30.66-2.34a14.56,14.56,0,0,0,.49-3.15c0-.31-.13-.63-.47-.66s-.44.27-.53.57c-.2.69,0,1.68-1.21,1.71-.22,0-.51.52-.4.9s.47.28.76.26C66.79,35.92,67,36.47,67.71,36.33ZM65,35c1-.73,1-1.78,1.31-2.67.11-.31-.14-.54-.44-.66-.46-.17-.67.11-.77.46A4.12,4.12,0,0,0,65,35ZM23.72,36.16c.42,1.74,1.08,3.3,2.89,4Zm1.22,6.69c.55.42,1,.77,1.46,1.1a.65.65,0,0,0,.93-.13c.34-.37.06-.61-.18-.87C26.55,42.24,25.91,41.9,24.94,42.85Zm9.87,25c-1.45-.41-2.2.54-3.2,1C32.67,69.56,32.67,69.56,34.81,67.81Zm-2.61-30a4.84,4.84,0,0,0,1.64,2.5.39.39,0,0,0,.62,0c.18-.23,0-.45-.1-.63A8.43,8.43,0,0,0,32.2,37.8Zm1,28.8a6,6,0,0,0-2.84,1.13c-.2.12-.35.34-.16.58a.45.45,0,0,0,.64.07A12.23,12.23,0,0,0,33.21,66.6ZM59.15,36.37c.73.36,1.44.81,2.27.45.07,0,.12-.27.09-.3A2.06,2.06,0,0,0,59.15,36.37ZM28.91,67.46a6.09,6.09,0,0,0,2.61-1.66A3.67,3.67,0,0,0,28.91,67.46ZM9.8,51.52l-.14.33a5.44,5.44,0,0,0,3.59.59ZM24,45.81l.23-.28a2,2,0,0,0-1.94-.76Zm4.86-5.36c.42.88.42.88,1.25,1.22C29.64,41.3,29.51,40.64,28.82,40.45Zm28.55-4a1.87,1.87,0,0,0-.17-.26.74.74,0,0,0-1-.09.33.33,0,0,0-.06.3c.27.33.65.19,1,.19C57.21,36.62,57.26,36.56,57.37,36.48ZM37.74,71c0-.1-.05-.28-.11-.29a.6.6,0,0,0-.69.39c0,.06,0,.27.11.28C37.39,71.49,37.58,71.26,37.74,71ZM15.1,47.9c.29.7.53,1.11,1.27,1.28C16.19,48.49,15.76,48.26,15.1,47.9ZM45,74.46l-.1-.29a2.66,2.66,0,0,0-.51.42.21.21,0,0,0,.18.35C44.78,74.92,44.88,74.68,45,74.46ZM22.4,46.34c0-.1-.07-.23-.14-.27s-.48-.57-.63-.17C21.54,46.14,22,46.44,22.4,46.34ZM66,37.26a.76.76,0,0,0-.65-.13c-.15,0-.24.15-.16.18a2.4,2.4,0,0,0,.65.17C66,37.5,66,37.39,66,37.26Zm-19.48-.17c0-.13-.09-.21-.23-.17a.64.64,0,0,0-.29.16c-.09.11,0,.22.12.23S46.43,37.3,46.49,37.09Zm-17,28.21c.08-.07.23-.12.25-.2s-.11-.3-.29-.24a.3.3,0,0,0-.18.24C29.26,65.17,29.41,65.23,29.49,65.3Z" transform="translate(-2 -23)"></path><path d="M10.23,55.39c-.1.34-.06.82-.4,1-.69.28-1.62.84-2.13.6-1.49-.73-3-.21-4.49-.51-.17,0-.36,0-.55-.36a7.16,7.16,0,0,1,3.21-.27,3.57,3.57,0,0,0,3.19-.39,1.15,1.15,0,0,1,1.19,0Z" transform="translate(-2 -23)"></path><path d="M54.4,74.49c-.34.6-.47,1.34-1.24,1.86-.13-1.1.64-1.45,1.11-2Z" transform="translate(-2 -23)"></path><path d="M34.75,27.11A2.88,2.88,0,0,1,34.47,25,3.14,3.14,0,0,1,34.75,27.11Z" transform="translate(-2 -23)"></path><path d="M19.13,62.92c-.27,0-.66.26-.76-.13s.29-.48.6-.54a3,3,0,0,1,.52,0l0,0-.37.74Z" transform="translate(-2 -23)"></path><path d="M41.44,23c.08.06.2.11.2.18a.3.3,0,0,1-.12.26c-.21.11-.29,0-.26-.22S41.38,23.07,41.44,23Z" transform="translate(-2 -23)"></path><path d="M64.61,66.43c-.73-.17-.91-.9-1.22-1.51l1.49,1.2Z" transform="translate(-2 -23)"></path><path d="M43,60.62a.31.31,0,0,1-.44.05.27.27,0,0,1,.05-.25.4.4,0,0,1,.3-.07C43,60.38,43,60.5,43,60.62Z" transform="translate(-2 -23)"></path><path d="M59.26,64.24c0,.1.14.2.12.29s-.16.13-.23,0a.8.8,0,0,1,0-.31Z" transform="translate(-2 -23)"></path><path d="M71.24,56.73a10.13,10.13,0,0,1-3-.37.53.53,0,0,1-.36-.71c.15-.38.5-.27.71,0C69.27,56.35,70.45,55.86,71.24,56.73Z" transform="translate(-2 -23)"></path><path d="M72.69,59.48a19.77,19.77,0,0,1-4-1.78,8.44,8.44,0,0,1,4.21,1.5Z" transform="translate(-2 -23)"></path><path d="M72,51.57a4.12,4.12,0,0,1-2.39.5c.2-.41.64-.22.94-.38A1.85,1.85,0,0,1,72,51.57Z" transform="translate(-2 -23)"></path><path d="M37.6,34.92a3.17,3.17,0,0,1,.51.44c.13.18.22.45-.1.53-.09,0-.3-.18-.34-.31a2.54,2.54,0,0,1,0-.68Z" transform="translate(-2 -23)"></path></svg></g></svg>