<svg height='300px' width='300px'  fill="#000000" xmlns="http://www.w3.org/2000/svg" data-name="Слой 1" viewBox="0 0 92.92 52.73" x="0px" y="0px"><title>Глаз-8</title><path d="M44.15,69.76c-.31-.33-.61-.68-.94-1a1.57,1.57,0,0,0-1.62-.22c-.62.16-.45.7-.44,1.14a.37.37,0,0,1-.29.46c-.39-.65-.63-1.6-1.8-1.32-.68.17-1,.46-.93,1.16,0,.34.11.68.15,1s.1.72-.54,1-.61,1.14-.74,1.82A8.74,8.74,0,0,1,36.34,76c-.41-2.12.07-4.26-.36-6.59-.58.71-.48,1.42-.73,2-.06.14-.19.32-.32.35a.36.36,0,0,1-.45-.38c0-.88-.69-1.53-.81-2.49-2,.89-2.1,2.91-3.09,4.76-.4-2.08.65-3.37,1-4.89a6.26,6.26,0,0,1-3.08,2c-.93.29-1.44,1.42-2,2.3-.17.3-.3.62-.44.93s-.46.79-.9.54-.13-.75.06-1A16.14,16.14,0,0,1,28,69.82a4.68,4.68,0,0,0,1.26-1.48c-2.57-.18-4.49,1-6.41,2.13A19.39,19.39,0,0,0,18,75.24c0-2.49,2.57-4.78,8.11-7.53a5.84,5.84,0,0,0-4.07-1c-1.45.2-2.56,1.39-4.36,1.65,1.08-1.61,2.74-1.68,3.95-2.7a2.38,2.38,0,0,0-2.09-.11c-.61.15-1.2.38-1.8.56-.36.11-.68.09-.77-.38s.18-.62.54-.72c.7-.2,1.5.07,2.13-.49-.13-.57-.67-.6-1-.8a72.54,72.54,0,0,1-9.41-5.87c-.23-.17-.47-.34-.68-.53C7.07,56.08,7.07,55.06,8.6,54a46.73,46.73,0,0,0,7.29-6.25c2.07-2.14,3.79-4.59,5.74-6.83,3.05-3.49,6.13-7,10-9.58C37.13,27.67,43,26.19,49.57,28c1.61.46,1.62.43,3.89-.33a4.17,4.17,0,0,1,0,.5c0,.36-.7.6-.27,1a1.53,1.53,0,0,0,1.39.51A12.09,12.09,0,0,0,59,28.14a19.25,19.25,0,0,0-5.9-2.48A29.12,29.12,0,0,0,38.67,25,22.91,22.91,0,0,0,27.9,30.79a105.07,105.07,0,0,0-10.1,11,32.4,32.4,0,0,1-6.11,6c-.88.62-1.58,1.49-2.41,2.19-.35.29-.81.8-1.28.09s0-.88.49-1.17a26.25,26.25,0,0,0,6-4.61c1.89-2,3.63-4.11,5.44-6.18,2.86-3.28,5.63-6.63,9.08-9.34a25.87,25.87,0,0,1,13.87-5.4,27,27,0,0,1,8.5.9,35.31,35.31,0,0,1,9.47,3.46c.82.45,1.58.67,2.34-.08.24-.23.55-.55.88-.27a.64.64,0,0,1,0,.93c-.72.77-.38,1.27.44,1.5s1.27,1.11,2,1.55c1,.57,1.85,1.15,3,.32a.92.92,0,0,1,1.12-.07c.12.85-.92.81-1.07,1.53a4.7,4.7,0,0,0,1.73,1.22c1.24.58,2.57,1,3.79-.18A16.75,16.75,0,0,1,76.47,33a10.73,10.73,0,0,1,1.1-.81c.3-.19.68-.26.88.14s-.08.54-.32.71-.51.25-.75.4a25.14,25.14,0,0,0-2.91,2.13c3.08-.23,5.77-2.14,8.93-2.11,0,.76-.61.77-1,.94a8.42,8.42,0,0,0-3.59,2.39c-.62.75-.52,1.06.39,1.28a2,2,0,0,0,1.64-.25c.67-.44,1.38-.83,2.08-1.2a2.16,2.16,0,0,1,1.73-.43c-.58,1.37-1.94,1.71-2.88,2.52s-2.35.71-3.56,1.42a3.4,3.4,0,0,0,3.29,0c3-1.35,5.91-2.75,8.75-4.34a1.85,1.85,0,0,1,1.72-.36A39.81,39.81,0,0,1,82.8,40.3c1.63.38,2.74-.29,4-.28-.11,1.17-1.18,1.74-1.52,2.89,4.48-.75,8.49-2.5,12.72-4.07,0,.9-.5,1-.87,1.14a100.12,100.12,0,0,1-11.44,4.16,6.2,6.2,0,0,0-2.64,1.14c2.56.24,4.82-.1,7.15.58a1.57,1.57,0,0,1-1.4.36c-1.77-.06-3.55-.11-5.32-.12-.66,0-1.41-.13-1.84.87,2.76.7,5.71.25,8.45,1.6a1.25,1.25,0,0,1-1.38.21,21.63,21.63,0,0,0-5.94-.72,4.41,4.41,0,0,0-4.56,2.29c3,0,5.9-.79,8.84-.29-3.57.65-7.32.17-10.73,1.87,3.71.81,7.5,1.21,11.15,2.6a1.7,1.7,0,0,1-1.78.39,8.78,8.78,0,0,0-2,0c-.64,0,.41.78-.35.64-.33-.06-.68-.09-1-.12a19,19,0,0,0-6.43.43,1.63,1.63,0,0,0,1.5.72c2.18,0,4.26.88,6.47.78.59,0,1.49.2,1.44.91s-1,.56-1.55.54a2.64,2.64,0,0,1-.83-.19,33.85,33.85,0,0,0-9.07-1.73,7.11,7.11,0,0,0-3.32.54c2.52,1,5,1.11,7.33,2.43a4.11,4.11,0,0,1-3.42.12,23.85,23.85,0,0,0-4.6-1.37,2.43,2.43,0,0,0-2.13.2c-.15.61.58.46.69.86-.56.16-1.12-.34-2,.15a23.29,23.29,0,0,1,4.57,1.58c.37.15.75.27,1.11.45a.45.45,0,0,1-.35.82,1.1,1.1,0,0,1-.32-.11c-1.67-1.27-3.71-1.4-5.66-1.84a1.92,1.92,0,0,0-2,.52c.65.67,1.72.6,2.38,1.38-1.49.87-2.9-.59-4.65-.1,1.55.88,3.13,1.09,4.29,2.26-.68.5-1.18.19-1.67,0-.72-.36-1.4-.78-2.13-1.12a2.64,2.64,0,0,0-3.36.56,2.23,2.23,0,0,1-1.61.55c-1.2-.15-2.08.5-3.07.83-.13.64.66.4.66.51.08.44,0,.53-.14.47-2.14-1-4.09,0-6.37.46,1.5,1.21,3.18,1.84,4,3.4l-.09.09c-1.12-.57-1.93-1.61-3.12-2.08-.6-.24-1.14-.76-1.92-.55l.26.87,0,0c-.71,0-1.25-.53-1.91-.71-1.13-.31-1.43-.08-1.31,1.09,0,.22.07.45.1.67ZM26.78,42.48c-.57.3-.9-.08-1.28-.31-1.07-.64-1.12-.58-2.06.24-.52.46-.67,1.16-1.19,1.6a7.58,7.58,0,0,0-2.44,4.2A14.21,14.21,0,0,0,20.43,57a14.92,14.92,0,0,0,2.66,4.58c3.75,4.07,8.61,5.18,13.94,4.6a29.28,29.28,0,0,0,9.29-2.89,15.9,15.9,0,0,0,6.16-4.8,17.7,17.7,0,0,0,1.68-2.73,5,5,0,0,1-1.39,3.49,19.64,19.64,0,0,1-7.15,5.21c-1.87.69-3.7,1.48-5.6,2.12a26.92,26.92,0,0,0,7.39-1.35,56.72,56.72,0,0,0,12.77-7,64.6,64.6,0,0,0,8.91-7.52c.75-.78.73-.84-.2-1.31-4.81-2.46-9.11-5.71-13.56-8.72-1.78-1.21-3.46-2.61-5.75-2.76a1.22,1.22,0,0,1-.6-.32c-3-2.31-6.69-2.51-10.21-3.1-2.1-.36-4,.59-6,1.31a25.38,25.38,0,0,0-6.74,4.31c-.83.65-.77,1.07.1,1.68C26.39,41.94,26.68,42,26.78,42.48ZM30,66.58a14.48,14.48,0,0,1-8.6-6.3A16.5,16.5,0,0,1,19.41,47c.05-.19.22-.42-.13-.58C17.66,48,16,49.6,14.39,51.17a1.57,1.57,0,0,0-.25,2,7.55,7.55,0,0,1,.57,4.52c-.06.45,0,.92-.07,1.36A1.62,1.62,0,0,0,15.72,61c1.65.89,3.32,1.78,5,2.71A22.75,22.75,0,0,0,30,66.58Zm34.6-31.25c2.64,2.11,5.41,2.06,6.91,0a7.69,7.69,0,0,0-2.26-1.48,1.31,1.31,0,0,0-1.3-.1A34.62,34.62,0,0,0,64.55,35.33ZM12.94,59.24C13.62,58,14,57,13.28,55.85c-.08-.13,0-.33-.07-.5-.28-1.61-.29-1.62-1.83-1.12a7,7,0,0,0-.81.26c-1.35.64-1.57,1.67-.47,2.67A34.93,34.93,0,0,0,12.94,59.24ZM59.82,32.51c.85,1.35,2.56.79,3.16,2,0,0,.22,0,.32,0A8.26,8.26,0,0,0,67,32.62c-.87-.76-1.84-1.58-2.78-1.17A16,16,0,0,1,59.82,32.51Zm-1.54-2a22.37,22.37,0,0,0,2.26-1.07c.22-.14.59-.27.45-.62a.5.5,0,0,0-.73-.21c-1.35.74-2.91.95-4.42,1.75,1.34.38,2.13,1.51,3.67,1.24A10,10,0,0,0,63.25,30C61.34,29.33,60,31.13,58.28,30.49Zm12.07,7.37c.17.26.21.4.3.43.58.24,1.16.45,1.75.67,1.76.63,2.46.4,3.7-1.24C74.13,36.42,72.31,37.59,70.35,37.86Zm9.27,15.87v-.34c-1.18-.09-2.35-.14-3.51-.34a2,2,0,0,0-2.3,1.3Zm-1-15c-1.39-.73-2-.51-3,1A9.19,9.19,0,0,0,78.65,38.75Zm-2.48-2.08c.71.51,1.11.42,1.48.08a.29.29,0,0,0,0-.47ZM72.86,55.59c0-.19-.11-.33-.3-.3s-.46.11-.52.35.13.26.31.26S72.8,55.88,72.86,55.59Zm1.35,0c.14,0,.32,0,.35-.18,0,0-.18-.1-.28-.1s-.32,0-.34.19C73.93,55.55,74.12,55.59,74.21,55.62ZM37.4,66.89l.16-.06a.86.86,0,0,0-.16,0l-.16,0Z" transform="translate(-5.08 -23.27)"></path><path d="M5.08,52.62a17.83,17.83,0,0,1,2.09-5.91,37.44,37.44,0,0,1,2.22-3.26,24.56,24.56,0,0,0,4.49-9,1.38,1.38,0,0,1,.58-1.05c.71.4.35,1,.2,1.49a26.58,26.58,0,0,1-3.54,7.57,54.28,54.28,0,0,0-4.76,8.31A3.81,3.81,0,0,1,5.08,52.62Z" transform="translate(-5.08 -23.27)"></path><path d="M50.9,67.14c.28-.56.57-.55.83-.43a10.45,10.45,0,0,1,3.72,3c.15.18.24.42,0,.59a.61.61,0,0,1-.48,0,1.94,1.94,0,0,1-.58-.36C53.26,68.94,52.47,67.56,50.9,67.14Z" transform="translate(-5.08 -23.27)"></path><path d="M44.13,69.78c.9.35.92,1.14.91,1.93a4.51,4.51,0,0,1-.89-1.95Z" transform="translate(-5.08 -23.27)"></path><path d="M47.22,68.75a2.68,2.68,0,0,1,1.2,2.09,3.1,3.1,0,0,1-1.17-2.11Z" transform="translate(-5.08 -23.27)"></path><path d="M28.27,60.44c.19-1,.19-1,1.37-2.42-.33-.23-.5.13-.75.18s-.4.24-.65,0c.05-.76,1.06-.77,1.24-1.53-.83-.32-1.39.81-2.25.38.12-.78,1-.59,1.43-1.24-1.28-.13-2.34.63-3.64.42.34-.76,1-1,1.66-1.44-.4-.26-.86-.12-1.34-.12.25-.43.75-.24.92-.7-.71-.42-1.37.54-2.06.1-.17-.56.31-.48.59-.59a10.92,10.92,0,0,0,1.9-.76c.88-.57.86-1.36-.14-1.75-.76-.31.24-.75-.25-.9s-.86-.25-1.37-.4c1.3-.73,2.69-1.25,2.7-3.07,0-.39.53-.82.89-1.17.79-.76,1-2.06,2.21-2.45.46-.14,0-.72.14-1.08.52,0,.95.41,1.49.08,2-1.2,4.13-1.08,6.28-.6.41.09.78,0,1.29,0a11.3,11.3,0,0,1-1.83,3.77c-1,1.63-1,1.76.52,2.86a16.54,16.54,0,0,1,3.22,3.31,2,2,0,0,0,2.24.78,22,22,0,0,0,2.65-.7c1.61-.57,3.32-.67,5.11-1.22a1.42,1.42,0,0,1-1.46,1.1,22.1,22.1,0,0,0-3,.65,1.51,1.51,0,0,0-1.26,1.37c.41.4,1,.06,1.34.4-.19.5-.75.11-1.07.52a28.85,28.85,0,0,0,3.52,1c-1.81.31-3.26-.35-4.81,0,.5.75,1.42.44,1.84,1.22-1,.69-2.18-.8-3.1.4.84.38,2.05,0,2.52,1.18-.89.32-1.55-.25-2.28-.46-.53-.16-1.19-.63-1.53,0s.42.94.84,1.09c1.3.45,1,1.91,1.75,2.8-.94-.68-1.87-1.37-2.82-2-.46-.33-.94-.73-1.49-.1a.36.36,0,0,1-.59,0c-.42-.54-.67-.31-1,.11s-.67-.42-1.14-.09a3.1,3.1,0,0,0,.79,2.46c.15.21.4.52,0,.73s-.67,0-.8-.38-.14-.67-.28-1c-.23-.53-.33-1.31-1.28-.76-.45.26-.52-.26-.66-.54s-.16-.61-.54-.54-.39.49-.39.83v4.49c-.91-.72-.64-1.64-1-2.3-.64-.29-.67.77-1.25.59,0-.1-.11-.23-.08-.3a12.45,12.45,0,0,0,1-2.54c.07-.38.27-.82-.17-1.09s-.6.16-.88.32a1.07,1.07,0,0,1-.32.06c-.24-.34.15-1-.5-1.13s-.85.21-1.06.66c-.44,1-1.5,1.16-2.3,1.65Z" transform="translate(-5.08 -23.27)"></path><path d="M48.23,42.16c-1.1-.69-2.36-1.16-2.92-2.45A7.16,7.16,0,0,1,48.23,42.16Z" transform="translate(-5.08 -23.27)"></path><path d="M43.41,38.51a6.76,6.76,0,0,0-2.26-.8C42.13,37,42.13,37,43.41,38.51Z" transform="translate(-5.08 -23.27)"></path><path d="M41.65,60.85c0,.2-.07.38-.25.37-.5,0-.62-.39-.68-.79,0-.17.05-.39.22-.38C41.45,60.06,41.52,60.5,41.65,60.85Z" transform="translate(-5.08 -23.27)"></path><path d="M48.59,52.71c-.34.43-.66.58-1.05.29a.28.28,0,0,1,0-.28C47.82,52.46,48.14,52.5,48.59,52.71Z" transform="translate(-5.08 -23.27)"></path><path d="M28.38,60.55a2.42,2.42,0,0,1-1.28,1.29,1.82,1.82,0,0,1,1.17-1.4Z" transform="translate(-5.08 -23.27)"></path><path d="M34.42,37.09a.29.29,0,0,1,.19.35c0,.17-.15.28-.33.21a.37.37,0,0,1-.14-.26C34.14,37.23,34.19,37.08,34.42,37.09Z" transform="translate(-5.08 -23.27)"></path></svg>